<?xml version="1.0" standalone="no"?><!DOCTYPE svg PUBLIC "-//W3C//DTD SVG 1.1//EN" "http://www.w3.org/Graphics/SVG/1.1/DTD/svg11.dtd"><svg t="1637169982515" class="icon" viewBox="0 0 1024 1024" version="1.1" xmlns="http://www.w3.org/2000/svg" p-id="4688" xmlns:xlink="http://www.w3.org/1999/xlink" width="60" height="60"><defs><style type="text/css"></style></defs><path d="M267.127467 110.904076S289.762743-34.133333 414.1056 51.102476c0 0 69.514971 25.629257 76.292876 214.66941 0 0 55.0912-137.216-78.672457-236.270934 0-0.009752-177.386057-104.789333-144.598552 81.403124z" fill="#3D3B3D" p-id="4689"></path><path d="M771.569371 112.854552s-22.235429-143.203962-144.335238-59.050666c0 0-68.266667 25.35619-74.927543 211.968 0 0-54.10621-135.489829 77.258362-233.30621-0.009752 0 174.206781-103.472762 142.004419 80.388876z" fill="#3D3B3D" p-id="4690"></path><path d="M507.12381 697.295238m-326.704762 0a326.704762 326.704762 0 1 0 653.409523 0 326.704762 326.704762 0 1 0-653.409523 0Z" fill="#8C392B" p-id="4691"></path><path d="M512 693.482057m-302.32381 0a302.32381 302.32381 0 1 0 604.64762 0 302.32381 302.32381 0 1 0-604.64762 0Z" fill="#FFEE8E" p-id="4692"></path><path d="M115.204876 797.305905A301.348571 301.348571 0 0 1 502.94979 410.86781 301.348571 301.348571 0 0 1 115.204876 797.305905z" fill="#901401" opacity=".5" p-id="4693"></path><path d="M603.155505 729.039238a299.037257 299.037257 0 0 1-69.397943-315.460267A299.924724 299.924724 0 0 1 919.552 798.232381a301.22179 301.22179 0 0 1-316.396495-69.193143z" fill="#901401" opacity=".5" p-id="4694"></path><path d="M516.87619 226.889143A151.815314 151.815314 0 0 1 668.038095 379.367619c0 84.202057-67.681524 15.242971-151.161905 15.242971S365.714286 463.559924 365.714286 379.367619a151.815314 151.815314 0 0 1 151.161904-152.478476z" fill="#3D3B3D" p-id="4695"></path><path d="M516.87619 246.33539c61.937371 0 112.152381 40.96 112.152381 91.477334s-50.21501 9.147733-112.152381 9.147733S404.72381 388.330057 404.72381 337.812724s50.21501-91.477333 112.15238-91.477334z" fill="#777777" p-id="4696"></path><path d="M105.452495 768.156038A301.348571 301.348571 0 0 1 493.19741 381.70819a300.373333 300.373333 0 0 1-69.749029 316.952381 302.840686 302.840686 0 0 1-317.995886 69.495467z" fill="#E84125" p-id="4697"></path><path d="M433.980952 431.084495m-58.514285 0a58.514286 58.514286 0 1 0 117.028571 0 58.514286 58.514286 0 1 0-117.028571 0Z" fill="#313131" fill-opacity=".5" p-id="4698"></path><path d="M277.942857 518.5536m-58.514286 0a58.514286 58.514286 0 1 0 117.028572 0 58.514286 58.514286 0 1 0-117.028572 0Z" fill="#313131" fill-opacity=".5" p-id="4699"></path><path d="M316.952381 703.234438m-58.514286 0a58.514286 58.514286 0 1 0 117.028572 0 58.514286 58.514286 0 1 0-117.028572 0Z" fill="#313131" fill-opacity=".5" p-id="4700"></path><path d="M141.409524 635.12381m-58.514286 0a58.514286 58.514286 0 1 0 117.028572 0 58.514286 58.514286 0 1 0-117.028572 0Z" fill="#313131" fill-opacity=".5" p-id="4701"></path><path d="M612.907886 699.889371a299.037257 299.037257 0 0 1-69.397943-315.460266A299.924724 299.924724 0 0 1 929.304381 769.072762a301.22179 301.22179 0 0 1-316.396495-69.183391z" fill="#E84125" p-id="4702"></path><path d="M590.019048 431.084495m-58.514286 0a58.514286 58.514286 0 1 0 117.028571 0 58.514286 58.514286 0 1 0-117.028571 0Z" fill="#313131" fill-opacity=".5" p-id="4703"></path><path d="M755.809524 518.5536m-58.514286 0a58.514286 58.514286 0 1 0 117.028572 0 58.514286 58.514286 0 1 0-117.028572 0Z" fill="#313131" fill-opacity=".5" p-id="4704"></path><path d="M716.8 703.234438m-58.514286 0a58.514286 58.514286 0 1 0 117.028572 0 58.514286 58.514286 0 1 0-117.028572 0Z" fill="#313131" fill-opacity=".5" p-id="4705"></path><path d="M882.590476 644.87619m-58.514286 0a58.514286 58.514286 0 1 0 117.028572 0 58.514286 58.514286 0 1 0-117.028572 0Z" fill="#313131" fill-opacity=".5" p-id="4706"></path></svg>