<?xml version="1.0" standalone="no"?><!DOCTYPE svg PUBLIC "-//W3C//DTD SVG 1.1//EN" "http://www.w3.org/Graphics/SVG/1.1/DTD/svg11.dtd"><svg t="1637412387956" class="icon" viewBox="0 0 1024 1024" version="1.1" xmlns="http://www.w3.org/2000/svg" p-id="4506" xmlns:xlink="http://www.w3.org/1999/xlink" width="60" height="60"><defs><style type="text/css"></style></defs><path d="M500.6336 287.3344s-27.0848-212.4288-239.2064-103.7312C165.9904 238.8992 145.5104 263.68 100.9664 259.9424c68.7616 43.52 245.9136 145.5616 399.6672 27.392z" fill="#BFE5BD" p-id="4507"></path><path d="M500.6336 287.3344s-0.2048-1.7408-0.768-4.7616c-27.904-47.872-26.9312-70.8096-182.784-9.9328-61.44 24.0128-150.272 0.3584-201.9328-12.544-4.5568 0.3072-9.216 0.256-14.2336-0.1536 68.8128 43.52 245.9648 145.5616 399.7184 27.392z" fill="#A2DD9E" p-id="4508"></path><path d="M340.224 358.2464c-74.9056 0-157.5936-28.4672-247.5008-85.3504a15.34976 15.34976 0 0 1-6.3488-17.8688c2.2528-6.7072 8.704-11.008 15.8208-10.4448 27.2384 2.304 43.5712-7.936 87.296-35.328 16.8448-10.5472 37.7344-23.6544 64.2048-38.9632 0.2048-0.1536 0.4608-0.256 0.6656-0.3584 71.2192-36.5056 131.1232-42.4448 177.9712-17.7664 70.5024 37.1712 82.9952 129.28 83.5072 133.2224 0.6656 5.4272-1.536 10.8032-5.888 14.1312-50.8928 39.168-107.6224 58.7264-169.728 58.7264zM145.8176 268.7488C278.6816 342.3744 392.192 346.4192 483.84 280.7296c-4.608-21.504-20.6336-77.6192-65.8944-101.4272-37.4272-19.6608-87.6032-13.6704-149.1456 17.8176-25.856 14.9504-46.3872 27.8528-62.9248 38.1952-24.7296 15.5136-42.752 26.7776-60.0576 33.4336z" fill="#000F04" p-id="4509"></path><path d="M555.8272 381.8496c-7.5776 0-14.1312-5.5808-15.2064-13.2608-0.256-1.6896-5.888-34.56-49.1008-64.5632a15.37024 15.37024 0 1 1 17.5616-25.2416c55.2448 38.4 61.7472 83.7632 62.0032 85.6576 1.0752 8.3968-4.8128 16.128-13.2608 17.2032-0.6656 0.1536-1.3312 0.2048-1.9968 0.2048z" fill="#000F04" p-id="4510"></path><path d="M451.328 132.352s39.2192-34.3552 69.8368-35.2768c30.6176 21.0432 103.3216 152.1152 65.024 281.2416-32.512 1.8944-46.848 0-46.848 0s62.1568-157.1328-88.0128-245.9648z" fill="#CF9782" p-id="4511"></path><path d="M559.7184 394.496c-14.848 0-21.9648-0.9216-22.4256-0.9728-4.7104-0.6144-8.8064-3.3792-11.2128-7.4752-2.4064-4.096-2.7648-9.0112-1.024-13.4144 2.304-5.888 55.2448-146.176-81.5616-227.072a15.38048 15.38048 0 0 1-2.304-24.7808c4.4544-3.8912 44.3904-37.9904 79.4624-39.0656 3.2768-0.1024 6.5024 0.8192 9.1648 2.7136 38.4512 26.4192 110.9504 163.6864 71.0656 298.24a15.33952 15.33952 0 0 1-13.824 10.9568c-11.008 0.6656-20.0704 0.8704-27.3408 0.8704z m-0.1024-30.72c0.0512 0 0.0512 0 0 0 4.1984 0 9.0624-0.1024 14.6944-0.3072 28.8256-115.7632-32.6656-226.2016-57.9584-250.5216-12.3392 2.2528-26.9312 10.496-38.4 18.3296 106.4448 75.4688 92.7744 187.1872 81.664 232.4992z" fill="#000F04" p-id="4512"></path><path d="M250.0096 437.2992s-107.1616 251.2384 195.1232 468.0704c0 0 76.8512 45.6704 124.672 6.0928 21.0432-16.64 37.3248-6.0928 55.5008 4.4032 18.176 10.5472 104.2432 26.7776 191.3344-117.6576s157.184-323.9424 0-445.1328c-55.1424-39.5264-132.9664-30.6176-175.0528-14.0288-42.0864 16.5888-117.7088 27.9552-164.7104-14.08s-177.1008-9.472-226.8672 112.3328z" fill="#E3EFAD" p-id="4513"></path><path d="M816.64 353.1264c-16.0256-11.4688-33.9456-18.8416-52.3776-23.1424 45.1072 76.8512 100.2496 228.352 7.424 382.8224-63.7952 104.6016-114.7392 140.288-200.8576 132.6592-77.568-6.912-83.968 66.048-253.696-60.9792 31.0784 40.2944 72.6528 81.152 128.0512 120.9344 0 0 76.8512 45.6704 124.672 6.0928 21.0432-16.64 37.3248-6.0928 55.5008 4.4032 18.176 10.5472 104.2432 26.7776 191.3344-117.6576s157.1328-323.9936-0.0512-445.1328z" fill="#E0EA7F" p-id="4514"></path><path d="M521.6256 943.0528c-42.4448 0-81.92-23.04-84.3264-24.4736-0.3584-0.2048-0.768-0.4608-1.1264-0.7168-99.9424-71.68-166.8608-154.8288-198.8608-247.0912a15.4112 15.4112 0 0 1 9.472-19.5584c7.9872-2.816 16.7424 1.4848 19.5584 9.472 29.7984 85.9648 92.7744 163.9424 187.136 231.7312 6.1952 3.4816 69.4784 37.888 106.5472 7.168 28.7744-22.6816 53.1968-8.4992 71.0656 1.8432l1.9456 1.1264c16.0768 9.3184 92.2112 17.5616 170.4448-112.2816 120.064-199.2192 121.344-334.2336 3.9936-424.8576-53.7088-38.3488-128.3072-24.6784-160.256-12.0832-51.7632 20.3776-130.1504 28.2112-180.5824-16.896-14.9504-13.3632-42.0352-17.152-72.448-10.1376-43.8784 10.1376-101.0688 46.1312-129.9456 116.7872-0.3072 0.7168-23.296 56.4224-15.7696 135.7824a15.33952 15.33952 0 0 1-13.824 16.7424c-8.4992 0.8704-15.9232-5.376-16.7424-13.824-8.2944-87.552 16.9472-147.968 18.0224-150.528 28.16-69.0176 84.7872-119.5008 151.3984-134.8608 40.1408-9.2672 77.4656-2.8672 99.84 17.152 42.8032 38.2976 113.7152 25.088 148.8384 11.2128 52.0704-20.5312 133.632-24.32 189.6448 15.8208 0.1536 0.1024 0.3072 0.2048 0.4096 0.3072 75.1616 57.9072 107.9296 134.5536 97.4848 227.7376-7.6288 67.84-38.2464 145.5104-93.696 237.5168-90.112 149.5552-183.7056 139.52-212.1728 123.0336l-1.9968-1.1264c-17.9712-10.4448-24.7808-13.568-36.3008-4.5056-17.5616 14.5408-37.9904 19.5072-57.7536 19.5072z" fill="#000F04" p-id="4515"></path><path d="M369.3056 717.5168c-5.0176 0-9.9328-2.4576-12.8512-6.9632-54.8864-84.0192-56.576-141.824-41.5744-207.872a15.39072 15.39072 0 0 1 18.3808-11.5712c8.2944 1.8944 13.4656 10.1376 11.5712 18.3808-11.3152 49.664-16.9472 101.1712 37.3248 184.2176a15.3088 15.3088 0 0 1-4.4544 21.248c-2.6112 1.7408-5.5296 2.56-8.3968 2.56zM349.6448 462.592c-1.6384 0-3.2768-0.256-4.9152-0.8192a15.33952 15.33952 0 0 1-9.6256-19.456c3.8912-11.4688 10.3424-19.0976 11.0592-19.968a15.3344 15.3344 0 0 1 21.6576-1.536 15.3088 15.3088 0 0 1 1.6384 21.5552c-0.2048 0.256-3.3792 4.1984-5.2736 9.7792a15.3088 15.3088 0 0 1-14.5408 10.4448z" fill="#000F04" p-id="4516"></path></svg>